<svg width="17" height="17" viewBox="0 0 17 17" fill="none" xmlns="http://www.w3.org/2000/svg">
<g clip-path="url(#clip0_698_277)">
<path d="M8.5 0C3.81291 0 0 3.81291 0 8.5C0 13.1871 3.81291 17 8.5 17C13.1871 17 17 13.1871 17 8.5C17 3.81291 13.1871 0 8.5 0ZM12.5425 12.8966C12.4768 12.9624 12.3987 13.0147 12.3128 13.0503C12.2269 13.086 12.1347 13.1043 12.0417 13.1042C11.9487 13.1043 11.8565 13.086 11.7706 13.0503C11.6847 13.0147 11.6066 12.9624 11.5409 12.8966L7.99923 9.35498C7.93332 9.28933 7.88104 9.21128 7.84543 9.12533C7.80981 9.03939 7.79156 8.94724 7.79171 8.85421V4.25C7.79171 3.8583 8.10897 3.54171 8.5 3.54171C8.89103 3.54171 9.20829 3.8583 9.20829 4.25V8.56096L12.5425 11.895C12.8194 12.1721 12.8194 12.6196 12.5425 12.8966Z" fill="#CCCCCC"/>
</g>
<defs>
<clipPath id="clip0_698_277">
<rect width="17" height="17" fill="white"/>
</clipPath>
</defs>
</svg>
