<svg width="11" height="11" viewBox="0 0 11 11" fill="none" xmlns="http://www.w3.org/2000/svg">
<path d="M9.18683 2.37371L5.5 6.06053L1.81317 2.37371C1.61404 2.1745 1.34392 2.06255 1.06225 2.0625C0.780574 2.06245 0.510417 2.17429 0.311207 2.37343C0.111996 2.57257 5.20375e-05 2.84268 1.81377e-08 3.12436C-5.20013e-05 3.40603 0.111793 3.67619 0.310929 3.8754L5.30362 8.86809C5.32939 8.89392 5.35999 8.91441 5.39369 8.9284C5.42739 8.94238 5.46352 8.94958 5.5 8.94958C5.53648 8.94958 5.57261 8.94238 5.60631 8.9284C5.64001 8.91441 5.67061 8.89392 5.69638 8.86809L10.6891 3.8754C10.7877 3.77676 10.8659 3.65966 10.9192 3.5308C10.9726 3.40194 11 3.26383 11 3.12436C11 2.98489 10.9725 2.84679 10.9191 2.71794C10.8657 2.5891 10.7874 2.47203 10.6888 2.37343C10.5902 2.27483 10.4731 2.19662 10.3442 2.14327C10.2153 2.08992 10.0772 2.06247 9.93775 2.0625C9.65608 2.06255 9.38596 2.1745 9.18683 2.37371Z" fill="#CCCCCC"/>
</svg>
