<svg width="113" height="38" viewBox="0 0 113 38" fill="none" xmlns="http://www.w3.org/2000/svg">
<path d="M10.035 9.65137L5.28549 22.0954L0.546387 9.65137H10.035Z" fill="#1A3865"/>
<path d="M38.1897 9.5063L34.6016 18.9223H24.5323L17.3148 37.8476H7.29736L18.0511 9.65148H28.0685L31.7291 0.0695801L38.1897 9.5063Z" fill="#0B79BF"/>
<path d="M43.7896 12.0158V9.53735H54.7507V12.0158H50.7478V23.288H47.7405V12.0158H43.7896Z" fill="#1A3865"/>
<path d="M56.7935 9.53735H59.8008V23.288H56.7935V9.53735Z" fill="#1A3865"/>
<path d="M62.0821 16.3402C62.1029 12.0988 64.8717 9.44409 68.8019 9.44409C70.1915 9.44409 71.5915 9.72408 72.867 10.3463L71.9648 12.6069C71.1248 12.1507 70.0049 11.9225 68.9782 11.9225C66.8731 11.9225 65.2243 13.6543 65.2243 16.3402C65.2243 19.3889 67.0701 21.0481 69.113 21.0481C70.2952 21.0481 71.2907 20.7578 72.0789 20.2393L72.8877 22.2822C71.8092 22.9666 70.513 23.4644 68.8019 23.4644C64.768 23.4644 62.0614 20.7163 62.0821 16.3402Z" fill="#1A3865"/>
<path d="M77.9067 9.53735V14.7846H77.9689L82.3451 9.53735H85.6428L80.3852 15.6453L86.6279 23.288H82.7184L78.3734 17.9682L77.9067 18.5178V23.288H74.8994V9.53735H77.9067Z" fill="#1A3865"/>
<path d="M96.9046 9.53735V12.0158H91.1078V15.1164H96.3135V17.3563H91.1078V20.8096H96.9046V23.288H88.1108V9.53735H96.9046Z" fill="#1A3865"/>
<path d="M98.5742 12.0158V9.53735H109.535V12.0158H105.533V23.288H102.525V12.0158H98.5742Z" fill="#1A3865"/>
<path d="M46.8175 29.251V30.3502H44.5672V37.8374H43.2502V30.3502H41.0103V29.251H46.8175Z" fill="#1A3865"/>
<path d="M47.8027 33.5026C47.8027 32.1752 48.1553 31.0967 48.8708 30.2983C49.5864 29.4894 50.5404 29.085 51.733 29.085C52.9566 29.085 53.921 29.4894 54.6262 30.2879C55.3314 31.0864 55.6839 32.1649 55.6839 33.5026C55.6839 34.8403 55.3314 35.9188 54.6158 36.7277C53.9003 37.5365 52.9463 37.941 51.7433 37.941C50.5508 37.941 49.5864 37.5365 48.8708 36.7277C48.1657 35.9188 47.8027 34.8507 47.8027 33.5026ZM49.8664 31.1693C49.4101 31.7397 49.1819 32.5174 49.1819 33.5026C49.1819 34.4877 49.4101 35.2655 49.8871 35.8462C50.3538 36.4269 50.976 36.7069 51.7537 36.7069C52.5626 36.7069 53.1848 36.4269 53.6411 35.8566C54.087 35.2862 54.3151 34.4981 54.3151 33.5026C54.3151 32.5071 54.087 31.7293 53.6307 31.159C53.1744 30.5886 52.5522 30.3086 51.7433 30.3086C50.9448 30.3086 50.3123 30.599 49.8664 31.1693Z" fill="#1A3865"/>
<path d="M57.2188 37.8372L57.8824 29.2612H59.4379L60.589 32.393C60.7964 32.9322 60.9934 33.4922 61.2008 34.0937C61.4082 34.6951 61.5534 35.1514 61.6571 35.4832L61.823 35.981C62.2171 34.8299 62.6423 33.627 63.1089 32.393L64.3015 29.2612H65.857L66.6451 37.8372H65.3385L65.0377 34.4773L64.7681 31.0449C64.3844 32.1234 63.9696 33.2641 63.5237 34.4773L62.3312 37.6713H61.3045L60.1431 34.4773L58.9817 31.0864C58.9817 31.4597 58.9091 32.59 58.7743 34.4773L58.515 37.8372H57.2188Z" fill="#1A3865"/>
<path d="M68.1592 33.5026C68.1592 32.1752 68.5118 31.0967 69.2273 30.2983C69.9428 29.4894 70.8969 29.085 72.0894 29.085C73.3131 29.085 74.2775 29.4894 74.9826 30.2879C75.6878 31.0864 76.0404 32.1649 76.0404 33.5026C76.0404 34.8403 75.6878 35.9188 74.9723 36.7277C74.2671 37.5365 73.3027 37.941 72.0998 37.941C70.9072 37.941 69.9428 37.5365 69.2273 36.7277C68.5221 35.9188 68.1592 34.8507 68.1592 33.5026ZM70.2124 31.1693C69.7562 31.7397 69.528 32.5174 69.528 33.5026C69.528 34.4877 69.7562 35.2655 70.2332 35.8462C70.6998 36.4269 71.322 36.7069 72.0998 36.7069C72.9086 36.7069 73.5308 36.4269 73.9871 35.8566C74.4434 35.2862 74.6612 34.4981 74.6612 33.5026C74.6612 32.5071 74.433 31.7293 73.9768 31.159C73.5205 30.5886 72.8983 30.3086 72.0894 30.3086C71.3013 30.3086 70.6687 30.599 70.2124 31.1693Z" fill="#1A3865"/>
<path d="M82.1378 37.8374L80.126 34.5812H78.9957V37.8374H77.6787V29.251H80.0742C81.0593 29.251 81.8163 29.4895 82.3556 29.9665C82.8845 30.4435 83.1541 31.0968 83.1541 31.9161C83.1437 32.5175 82.9882 33.0257 82.6978 33.4508C82.3971 33.8656 81.9926 34.1767 81.4638 34.3634L83.7037 37.827H82.1378V37.8374ZM78.9957 30.3502V33.4819H80.1779C80.7171 33.4819 81.1319 33.3368 81.4119 33.0568C81.6919 32.7768 81.8267 32.3931 81.8267 31.9161C81.8267 30.8687 81.2564 30.3502 80.1053 30.3502H78.9957Z" fill="#1A3865"/>
<path d="M89.4902 37.8374L87.4785 34.5812H86.3481V37.8374H85.0415V29.251H87.437C88.4221 29.251 89.1791 29.4895 89.7184 29.9665C90.2473 30.4435 90.5169 31.0968 90.5169 31.9161C90.5065 32.5175 90.351 33.0257 90.0606 33.4508C89.7599 33.8656 89.3554 34.1767 88.8266 34.3634L91.0665 37.827H89.4902V37.8374ZM86.3481 30.3502V33.4819H87.5303C88.0696 33.4819 88.4843 33.3368 88.7643 33.0568C89.0443 32.7768 89.1791 32.3931 89.1791 31.9161C89.1791 30.8687 88.6088 30.3502 87.4577 30.3502H86.3481Z" fill="#1A3865"/>
<path d="M92.0513 33.5026C92.0513 32.1752 92.4038 31.0967 93.1194 30.2983C93.8349 29.4894 94.7889 29.085 95.9815 29.085C97.2052 29.085 98.1696 29.4894 98.8747 30.2879C99.5799 31.0864 99.9325 32.1649 99.9325 33.5026C99.9325 34.8403 99.5799 35.9188 98.8644 36.7277C98.1592 37.5365 97.1948 37.941 95.9919 37.941C94.7993 37.941 93.8349 37.5365 93.1194 36.7277C92.4142 35.9188 92.0513 34.8507 92.0513 33.5026ZM94.1045 31.1693C93.6482 31.7397 93.4201 32.5174 93.4201 33.5026C93.4201 34.4877 93.6483 35.2655 94.1253 35.8462C94.5919 36.4269 95.2141 36.7069 95.9919 36.7069C96.8007 36.7069 97.4229 36.4269 97.8792 35.8566C98.3251 35.2862 98.5533 34.4981 98.5533 33.5026C98.5533 32.5071 98.3251 31.7293 97.8688 31.159C97.4126 30.5886 96.7904 30.3086 95.9815 30.3086C95.183 30.3086 94.5608 30.599 94.1045 31.1693Z" fill="#1A3865"/>
<path d="M106.145 29.3857H107.306L108.208 32.4448L109.37 36.4788C109.681 34.9336 109.971 33.5855 110.251 32.4448L110.998 29.2612H112.325L110.22 37.8372H108.654L107.835 35.1307L106.725 31.2938C106.528 32.1026 106.176 33.3781 105.657 35.1307L104.869 37.8372H103.293L101.042 29.2612H102.401L103.199 32.4345L104.143 36.458C104.527 35.0373 104.9 33.6892 105.263 32.4345L106.145 29.3857Z" fill="#1A3865"/>
</svg>
